<svg width="19" height="20" viewBox="0 0 19 20" fill="none" xmlns="http://www.w3.org/2000/svg">
<g clip-path="url(#clip0_10832_102680)">
<path d="M8.38147 1.25C9.04553 1.25 9.68225 1.51172 10.151 1.98047L17.026 8.85547C18.0026 9.83203 18.0026 11.4141 17.026 12.3906L11.8112 17.6055C10.8346 18.582 9.25256 18.582 8.276 17.6055L1.401 10.7305C0.928345 10.2617 0.666626 9.62891 0.666626 8.96484V3.125C0.666626 2.08984 1.50647 1.25 2.54163 1.25H8.38147ZM2.54163 8.96484C2.54163 9.12891 2.60803 9.28906 2.72522 9.40625L9.60022 16.2813C9.84241 16.5234 10.2408 16.5234 10.483 16.2813L15.6979 11.0664C15.9401 10.8242 15.9401 10.4258 15.6979 10.1836L8.82288 3.30859C8.70569 3.19141 8.54553 3.125 8.38147 3.125H2.54163V8.96484ZM5.04163 4.375C5.37315 4.375 5.69109 4.5067 5.92551 4.74112C6.15993 4.97554 6.29163 5.29348 6.29163 5.625C6.29163 5.95652 6.15993 6.27446 5.92551 6.50888C5.69109 6.7433 5.37315 6.875 5.04163 6.875C4.7101 6.875 4.39216 6.7433 4.15774 6.50888C3.92332 6.27446 3.79163 5.95652 3.79163 5.625C3.79163 5.29348 3.92332 4.97554 4.15774 4.74112C4.39216 4.5067 4.7101 4.375 5.04163 4.375Z" fill="#212121"/>
</g>
<defs>
<clipPath id="clip0_10832_102680">
<rect width="17.5" height="20" fill="white" transform="translate(0.666626)"/>
</clipPath>
</defs>
</svg>
