<svg width="136" height="40" viewBox="0 0 136 40" fill="none" xmlns="http://www.w3.org/2000/svg">
<g clip-path="url(#clip0_11330_731)">
<rect x="0.664062" y="0.00927734" width="135" height="40" rx="5" fill="white"/>
<path d="M21.3318 19.498L10.6848 30.798C10.6858 30.8 10.6858 30.802 10.6868 30.804C11.0128 32.0321 12.1338 32.935 13.4638 32.935C13.9958 32.935 14.4948 32.791 14.9228 32.539L14.9568 32.519L26.9408 25.604L21.3318 19.498Z" fill="#EB4335"/>
<path d="M32.103 17.5739L32.093 17.5669L26.919 14.5669L21.09 19.7539L26.939 25.6019L32.086 22.6329C32.988 22.1459 33.6 21.1949 33.6 20.0979C33.6 19.0089 32.996 18.0619 32.103 17.5739Z" fill="#FABC13"/>
<path d="M10.6849 9.35107C10.6209 9.58707 10.5869 9.83407 10.5869 10.0911V30.0581C10.5869 30.3151 10.6199 30.5631 10.6849 30.7981L21.6979 19.7871L10.6849 9.35107Z" fill="#547DBF"/>
<path d="M21.4098 20.0739L26.9208 14.5649L14.9498 7.62487C14.5148 7.36387 14.0078 7.21387 13.4638 7.21387C12.1338 7.21387 11.0118 8.11887 10.6848 9.34787V9.35087L21.4098 20.0739Z" fill="#30A851"/>
<path d="M68.7581 21.7143C66.4061 21.7143 64.4891 23.5023 64.4891 25.9673C64.4891 28.4163 66.4061 30.2203 68.7581 30.2203C71.1101 30.2203 73.0271 28.4163 73.0271 25.9673C73.0271 23.5023 71.1101 21.7143 68.7581 21.7143ZM68.7581 28.5453C67.4691 28.5453 66.3571 27.4823 66.3571 25.9673C66.3571 24.4363 67.4691 23.3893 68.7581 23.3893C70.0471 23.3893 71.1581 24.4363 71.1581 25.9673C71.1581 27.4813 70.0471 28.5453 68.7581 28.5453ZM59.4441 21.7143C57.0921 21.7143 55.1751 23.5023 55.1751 25.9673C55.1751 28.4163 57.0921 30.2203 59.4441 30.2203C61.7961 30.2203 63.7131 28.4163 63.7131 25.9673C63.7141 23.5023 61.7961 21.7143 59.4441 21.7143ZM59.4441 28.5453C58.1551 28.5453 57.0441 27.4823 57.0441 25.9673C57.0441 24.4363 58.1561 23.3893 59.4441 23.3893C60.7331 23.3893 61.8441 24.4363 61.8441 25.9673C61.8451 27.4813 60.7331 28.5453 59.4441 28.5453ZM48.3661 23.0193V24.8233H52.6841C52.5551 25.8383 52.2171 26.5793 51.7011 27.0953C51.0731 27.7233 50.0901 28.4163 48.3661 28.4163C45.7081 28.4163 43.6301 26.2733 43.6301 23.6153C43.6301 20.9573 45.7081 18.8143 48.3661 18.8143C49.8001 18.8143 50.8471 19.3783 51.6201 20.1033L52.8931 18.8303C51.8141 17.7993 50.3801 17.0093 48.3661 17.0093C44.7251 17.0093 41.6641 19.9733 41.6641 23.6143C41.6641 27.2553 44.7251 30.2193 48.3661 30.2193C50.3311 30.2193 51.8141 29.5753 52.9741 28.3663C54.1661 27.1743 54.5371 25.4983 54.5371 24.1453C54.5371 23.7263 54.5051 23.3393 54.4401 23.0173H48.3661V23.0193ZM93.6741 24.4203C93.3201 23.4693 92.2401 21.7133 90.0331 21.7133C87.8421 21.7133 86.0221 23.4373 86.0221 25.9663C86.0221 28.3503 87.8261 30.2193 90.2431 30.2193C92.1921 30.2193 93.3201 29.0273 93.7871 28.3343L92.3371 27.3673C91.8541 28.0763 91.1931 28.5433 90.2431 28.5433C89.2921 28.5433 88.6161 28.1083 88.1811 27.2543L93.8681 24.9023L93.6741 24.4203ZM87.8741 25.8383C87.8261 24.1953 89.1471 23.3573 90.0971 23.3573C90.8381 23.3573 91.4661 23.7273 91.6761 24.2593L87.8741 25.8383ZM83.2501 29.9623H85.1191V17.4613H83.2501V29.9623ZM80.1891 22.6643H80.1251C79.7061 22.1653 78.9011 21.7133 77.8861 21.7133C75.7591 21.7133 73.8101 23.5823 73.8101 25.9823C73.8101 28.3663 75.7591 30.2193 77.8861 30.2193C78.9011 30.2193 79.7061 29.7683 80.1251 29.2523H80.1891V29.8643C80.1891 31.4913 79.3191 32.3613 77.9171 32.3613C76.7731 32.3613 76.0641 31.5393 75.7741 30.8473L74.1471 31.5243C74.6141 32.6523 75.8551 34.0373 77.9171 34.0373C80.1081 34.0373 81.9611 32.7483 81.9611 29.6073V21.9713H80.1891V22.6643ZM78.0471 28.5453C76.7581 28.5453 75.6791 27.4663 75.6791 25.9833C75.6791 24.4853 76.7581 23.3893 78.0471 23.3893C79.3201 23.3893 80.3181 24.4843 80.3181 25.9833C80.3181 27.4653 79.3201 28.5453 78.0471 28.5453ZM102.428 17.4613H97.9571V29.9623H99.8221V25.2263H102.427C104.495 25.2263 106.528 23.7293 106.528 21.3443C106.528 18.9593 104.496 17.4613 102.428 17.4613ZM102.476 23.4863H99.8221V19.2013H102.476C103.871 19.2013 104.663 20.3563 104.663 21.3443C104.663 22.3123 103.871 23.4863 102.476 23.4863ZM114.008 21.6913C112.657 21.6913 111.258 22.2863 110.679 23.6053L112.336 24.2973C112.69 23.6053 113.349 23.3803 114.041 23.3803C115.006 23.3803 115.987 23.9593 116.003 24.9883V25.1173C115.665 24.9243 114.941 24.6343 114.057 24.6343C112.272 24.6343 110.454 25.6153 110.454 27.4493C110.454 29.1223 111.918 30.1993 113.558 30.1993C114.813 30.1993 115.504 29.6363 115.938 28.9773H116.002V29.9423H117.803V25.1493C117.803 22.9293 116.147 21.6913 114.008 21.6913ZM113.782 28.5423C113.171 28.5423 112.318 28.2363 112.318 27.4813C112.318 26.5163 113.38 26.1463 114.296 26.1463C115.116 26.1463 115.502 26.3233 116.001 26.5643C115.857 27.7223 114.86 28.5423 113.782 28.5423ZM124.365 21.9643L122.226 27.3843H122.162L119.943 21.9643H117.933L121.262 29.5393L119.364 33.7533H121.31L126.441 21.9643H124.365ZM107.558 29.9623H109.424V17.4613H107.558V29.9623Z" fill="black"/>
<path fill-rule="evenodd" clip-rule="evenodd" d="M74.2726 12.233C73.6826 12.84 72.9496 13.142 72.0726 13.142C71.1956 13.142 70.4626 12.839 69.8736 12.233C69.2836 11.627 68.9896 10.885 68.9896 10.008C68.9896 9.13105 69.2836 8.38905 69.8736 7.78305C70.4626 7.17605 71.1956 6.87305 72.0726 6.87305C72.9446 6.87305 73.6766 7.17805 74.2686 7.78705C74.8606 8.39605 75.1566 9.13605 75.1566 10.008C75.1566 10.886 74.8616 11.628 74.2726 12.233ZM70.4426 11.731C70.8866 12.181 71.4296 12.405 72.0726 12.405C72.7156 12.405 73.2586 12.18 73.7026 11.731C74.1466 11.281 74.3696 10.707 74.3696 10.009C74.3696 9.31105 74.1466 8.73605 73.7026 8.28705C73.2596 7.83705 72.7156 7.61305 72.0726 7.61305C71.4296 7.61305 70.8866 7.83805 70.4426 8.28705C69.9996 8.73705 69.7766 9.31105 69.7766 10.009C69.7766 10.707 69.9996 11.281 70.4426 11.731Z" fill="black"/>
<path d="M48.0816 10.252C48.0816 11.09 47.8336 11.757 47.3366 12.255C46.7726 12.847 46.0366 13.143 45.1326 13.143C44.2666 13.143 43.5296 12.843 42.9246 12.243C42.3186 11.642 42.0156 10.898 42.0156 10.01C42.0156 9.12105 42.3186 8.37705 42.9246 7.77705C43.5296 7.17605 44.2666 6.87605 45.1326 6.87605C45.5626 6.87605 45.9736 6.96005 46.3636 7.12705C46.7546 7.29505 47.0676 7.51805 47.3016 7.79705L46.7746 8.32505C46.3776 7.85005 45.8306 7.61305 45.1316 7.61305C44.4996 7.61305 43.9536 7.83505 43.4926 8.27905C43.0326 8.72305 42.8026 9.29905 42.8026 10.009C42.8026 10.719 43.0326 11.295 43.4936 11.74C43.9546 12.184 44.5006 12.406 45.1326 12.406C45.8026 12.406 46.3616 12.183 46.8086 11.736C47.0986 11.445 47.2666 11.04 47.3116 10.521H45.1326V9.79905H48.0396C48.0686 9.95605 48.0816 10.107 48.0816 10.252Z" fill="black"/>
<path d="M52.6916 7.74605H49.9596V9.64805H52.4236V10.369H49.9596V12.271H52.6916V13.009H49.1886V7.00905H52.6916V7.74605Z" fill="black"/>
<path d="M55.1706 13.009H55.9416V7.74605H57.6176V7.00905H53.4946V7.74605H55.1706V13.009Z" fill="black"/>
<path d="M60.6016 13.009V7.00905H61.3726V13.009H60.6016Z" fill="black"/>
<path d="M64.0196 13.009H64.7906V7.74605H66.4666V7.00905H62.3436V7.74605H64.0196V13.009Z" fill="black"/>
<path d="M76.2386 7.00905V13.009H77.0076V9.27105L76.9746 8.11505H77.0076L80.0586 13.009H80.8636V7.00905H80.0926V10.521L80.1256 11.677H80.0926L77.1766 7.00905H76.2386Z" fill="black"/>
<path fill-rule="evenodd" clip-rule="evenodd" d="M74.2726 12.233C73.6826 12.84 72.9496 13.142 72.0726 13.142C71.1956 13.142 70.4626 12.839 69.8736 12.233C69.2836 11.627 68.9896 10.885 68.9896 10.008C68.9896 9.13105 69.2836 8.38905 69.8736 7.78305C70.4626 7.17605 71.1956 6.87305 72.0726 6.87305C72.9446 6.87305 73.6766 7.17805 74.2686 7.78705C74.8606 8.39605 75.1566 9.13605 75.1566 10.008C75.1566 10.886 74.8616 11.628 74.2726 12.233ZM70.4426 11.731C70.8866 12.181 71.4296 12.405 72.0726 12.405C72.7156 12.405 73.2586 12.18 73.7026 11.731C74.1466 11.281 74.3696 10.707 74.3696 10.009C74.3696 9.31105 74.1466 8.73605 73.7026 8.28705C73.2596 7.83705 72.7156 7.61305 72.0726 7.61305C71.4296 7.61305 70.8866 7.83805 70.4426 8.28705C69.9996 8.73705 69.7766 9.31105 69.7766 10.009C69.7766 10.707 69.9996 11.281 70.4426 11.731Z" stroke="black" stroke-width="0.2" stroke-miterlimit="10"/>
<path d="M48.0816 10.252C48.0816 11.09 47.8336 11.757 47.3366 12.255C46.7726 12.847 46.0366 13.143 45.1326 13.143C44.2666 13.143 43.5296 12.843 42.9246 12.243C42.3186 11.642 42.0156 10.898 42.0156 10.01C42.0156 9.12105 42.3186 8.37705 42.9246 7.77705C43.5296 7.17605 44.2666 6.87605 45.1326 6.87605C45.5626 6.87605 45.9736 6.96005 46.3636 7.12705C46.7546 7.29505 47.0676 7.51805 47.3016 7.79705L46.7746 8.32505C46.3776 7.85005 45.8306 7.61305 45.1316 7.61305C44.4996 7.61305 43.9536 7.83505 43.4926 8.27905C43.0326 8.72305 42.8026 9.29905 42.8026 10.009C42.8026 10.719 43.0326 11.295 43.4936 11.74C43.9546 12.184 44.5006 12.406 45.1326 12.406C45.8026 12.406 46.3616 12.183 46.8086 11.736C47.0986 11.445 47.2666 11.04 47.3116 10.521H45.1326V9.79905H48.0396C48.0686 9.95605 48.0816 10.107 48.0816 10.252Z" stroke="black" stroke-width="0.2" stroke-miterlimit="10"/>
<path d="M52.6916 7.74605H49.9596V9.64805H52.4236V10.369H49.9596V12.271H52.6916V13.009H49.1886V7.00905H52.6916V7.74605Z" stroke="black" stroke-width="0.2" stroke-miterlimit="10"/>
<path d="M55.1706 13.009H55.9416V7.74605H57.6176V7.00905H53.4946V7.74605H55.1706V13.009Z" stroke="black" stroke-width="0.2" stroke-miterlimit="10"/>
<path d="M60.6016 13.009V7.00905H61.3726V13.009H60.6016Z" stroke="black" stroke-width="0.2" stroke-miterlimit="10"/>
<path d="M64.0196 13.009H64.7906V7.74605H66.4666V7.00905H62.3436V7.74605H64.0196V13.009Z" stroke="black" stroke-width="0.2" stroke-miterlimit="10"/>
<path d="M76.2386 7.00905V13.009H77.0076V9.27105L76.9746 8.11505H77.0076L80.0586 13.009H80.8636V7.00905H80.0926V10.521L80.1256 11.677H80.0926L77.1766 7.00905H76.2386Z" stroke="black" stroke-width="0.2" stroke-miterlimit="10"/>
</g>
<defs>
<clipPath id="clip0_11330_731">
<rect x="0.664062" y="0.00927734" width="135" height="40" rx="5" fill="white"/>
</clipPath>
</defs>
</svg>
